<svg class="fill-black" width="345" height="110" viewBox="0 0 345 110" fill="none" xmlns="http://www.w3.org/2000/svg">
<path d="M147.698 88.8591C138.43 88.8591 131.422 83.2528 131.422 74.3912V74.3007C131.422 65.62 137.842 60.6015 149.19 59.9233L163.161 59.0642V54.6334C163.161 48.6202 159.499 45.365 152.22 45.365C146.387 45.365 142.544 47.5351 141.278 51.333L141.233 51.4686H133.366L133.411 51.1973C134.677 43.5565 142.092 38.4023 152.491 38.4023C164.382 38.4023 171.028 44.5059 171.028 54.6334V88H163.161V80.8113H162.438C159.363 86.0107 154.254 88.8591 147.698 88.8591ZM139.47 74.2103C139.47 79.1384 143.674 82.032 149.326 82.032C157.329 82.032 163.161 76.7874 163.161 69.8247V65.3939L150.14 66.2078C142.725 66.6599 139.47 69.2822 139.47 74.1199V74.2103ZM202.722 88.3617C192.684 88.3617 188.48 84.6543 188.48 75.3406V45.7719H180.794V39.2613H188.48V26.6471H196.618V39.2613H207.288V45.7719H196.618V73.3513C196.618 79.0932 198.607 81.3991 203.671 81.3991C205.073 81.3991 205.841 81.3538 207.288 81.2182V87.9096C205.751 88.1809 204.259 88.3617 202.722 88.3617ZM238.213 88.8591C224.288 88.8591 215.878 79.0932 215.878 63.8115V63.7663C215.878 48.7107 224.469 38.4023 237.716 38.4023C250.963 38.4023 259.011 48.2585 259.011 62.8169V65.8913H223.926C224.152 75.9736 229.713 81.8512 238.394 81.8512C244.995 81.8512 249.064 78.7315 250.375 75.7927L250.556 75.3858H258.423L258.333 75.7475C256.66 82.3485 249.697 88.8591 238.213 88.8591ZM237.671 45.4102C230.437 45.4102 224.921 50.3383 224.062 59.6068H251.008C250.194 49.9766 244.859 45.4102 237.671 45.4102ZM271.218 88V39.2613H279.085V46.6761H279.808C281.979 41.4315 286.59 38.4023 292.965 38.4023C299.566 38.4023 304.178 41.8836 306.438 46.9474H307.162C309.784 41.7932 315.345 38.4023 322.082 38.4023C332.028 38.4023 337.589 44.099 337.589 54.317V88H329.723V56.1254C329.723 48.9367 326.422 45.365 319.55 45.365C312.768 45.365 308.292 50.4739 308.292 56.668V88H300.425V54.9047C300.425 49.1176 296.446 45.365 290.298 45.365C283.923 45.365 279.085 50.926 279.085 57.7983V88H271.218Z" fill="#383838"/>
<path d="M35.3354 90.0548C-10.9184 101.8 -2.86229 37.1628 31.4335 55.0254C65.7292 72.8881 114.038 52.4734 89.171 19.155C64.3039 -14.1633 81.5893 78.31 35.3354 90.0548Z" fill="url(#paint0_angular_6_2)" style="mix-blend-mode:screen"/>
<path d="M35.3354 90.0548C-10.9184 101.8 -2.86229 37.1628 31.4335 55.0254C65.7292 72.8881 114.038 52.4734 89.171 19.155C64.3039 -14.1633 81.5893 78.31 35.3354 90.0548Z" fill="black"/>
<defs>
<radialGradient id="paint0_angular_6_2" cx="0" cy="0" r="1" gradientUnits="userSpaceOnUse" gradientTransform="translate(63.3754 62.0042) rotate(-132.531) scale(93.752 99.7925)">
<stop offset="0.130313" stop-color="#246FDB"/>
<stop offset="0.242632" stop-color="#00AC47"/>
<stop offset="0.629864" stop-color="#FBBC04"/>
<stop offset="0.910676" stop-color="#EA4335"/>
</radialGradient>
</defs>
</svg>
